# xmcd
#
# Track frame offsets:
#	150
#	12593
#	26680
#	44125
#	59940
#	77260
#	93533
#	105432
#	118432
#	130262
#	143401
#	169877
#
# Disc length: 2561 seconds
#
# Revision: 1
# Processed by: cddbd v1.5.2PL0 Copyright (c) Steve Scherf et al.
# Submitted via: audiograbber 1.83.01
#
DISCID=aa09ff0c
DTITLE=Erin Hay - Somebody's Angel (MP3.COM)
DYEAR=1900
DGENRE=
TTITLE0=I'd Be In Memphis
TTITLE1=Honky Tonk Heaven
TTITLE2=Somebody's Angel
TTITLE3=If The Phone Don't Ring
TTITLE4=Here Comes Trouble
TTITLE5=Mirror! Mirror! (On The Wall)
TTITLE6=It's A Fact
TTITLE7=I Got The Blues Again
TTITLE8=You're The Stuff (Country Songs Are Made Of)
TTITLE9=Before You Turn To A Memory
TTITLE10=Goodbye Ireland
TTITLE11=Data Track
EXTD=
EXTT0=
EXTT1=
EXTT2=
EXTT3=
EXTT4=
EXTT5=
EXTT6=
EXTT7=
EXTT8=
EXTT9=
EXTT10=
EXTT11=
PLAYORDER=
